<?xml version="1.0" standalone="no"?>
<!DOCTYPE svg PUBLIC "-//W3C//DTD SVG 20010904//EN"
 "http://www.w3.org/TR/2001/REC-SVG-20010904/DTD/svg10.dtd">
<svg version="1.0" xmlns="http://www.w3.org/2000/svg"
 width="64.000000pt" height="64.000000pt" viewBox="0 0 64.000000 64.000000"
 preserveAspectRatio="xMidYMid meet">

<g transform="translate(0.000000,64.000000) scale(0.100000,-0.100000)"
fill="#ff3300" stroke="none">
<path d="M283 596 c-17 -8 -36 -23 -42 -35 -18 -32 -13 -85 9 -109 l20 -21
-22 -12 c-19 -10 -19 -12 -5 -21 29 -16 22 -88 -13 -139 -16 -24 -30 -49 -30
-55 0 -6 -11 -21 -25 -34 -19 -18 -25 -34 -25 -66 0 -40 2 -43 38 -55 48 -17
216 -17 265 0 35 12 37 15 37 56 0 27 -6 47 -17 56 -9 8 -22 28 -30 44 -7 17
-23 42 -34 56 -30 37 -38 115 -14 133 18 13 18 14 0 23 -16 10 -16 11 0 36 54
83 -23 182 -112 143z m41 -41 c5 -15 -18 -45 -34 -45 -5 0 -14 9 -20 19 -7 15
-6 23 5 35 17 17 40 12 49 -9z m60 -316 c-3 -5 -10 -7 -15 -3 -5 3 -7 10 -3
15 3 5 10 7 15 3 5 -3 7 -10 3 -15z"/>
</g>
</svg>
